<svg width="231" height="111" viewBox="0 0 231 111" fill="none" xmlns="http://www.w3.org/2000/svg">
<g id="shipment-car (1) 1" clip-path="url(#clip0_72_10)">
<path id="Vector" d="M226.033 48.2233L207.357 27.361C204.656 24.3445 199.436 22.0659 195.216 22.0659H171.803L173.101 9.72113C173.367 7.1943 172.573 4.69527 170.922 2.86603C169.282 1.0435 166.896 -2.161e-08 164.376 0L53.0261 9.54626e-07C47.9783 9.97902e-07 43.6082 3.94499 43.0771 8.98426L42.5346 14.1376H26.9808C25.0282 14.1376 23.4456 15.7215 23.4456 17.6715C23.4456 19.6214 25.0282 21.2054 26.9808 21.2054H82.6689C84.6196 21.2054 86.2041 19.6214 86.2041 17.6715C86.2041 15.7215 84.6196 14.1376 82.6689 14.1376H49.6481L50.113 9.72305C50.2597 8.33363 51.6496 7.06878 53.0271 7.06878H164.376C165.053 7.06878 165.452 7.3572 165.666 7.59676C165.89 7.84494 166.144 8.28667 166.068 8.98426L157.723 88.3602H93.2515C92.87 84.8052 91.4417 81.5262 89.0578 78.8786C85.8399 75.3083 81.3058 73.3392 76.2925 73.3392C67.3356 73.3392 59.2012 79.8388 56.7981 88.3602H43.7357C43.0628 88.3602 42.6621 88.0718 42.4445 87.8322C42.2221 87.5841 41.97 87.1423 42.0419 86.4447L44.4421 63.6209H61.2267C63.1774 63.6209 64.7619 62.038 64.7619 60.0861C64.7619 58.1342 63.1774 56.5522 61.2267 56.5522H3.5352C1.5826 56.5522 -1.6734e-08 58.1342 0 60.0861C1.6734e-08 62.038 1.5826 63.6209 3.5352 63.6209H37.3324L35.0117 85.706C34.7462 88.2328 35.5399 90.7299 37.1886 92.563C38.8326 94.3836 41.2166 95.429 43.7366 95.429H56.175C56.5546 98.984 57.9838 102.263 60.3697 104.911C63.5876 108.481 68.1198 110.45 73.1331 110.45C82.0928 110.45 90.2263 103.95 92.6275 95.429H173.082C173.467 98.984 174.895 102.265 177.278 104.912C180.496 108.483 185.031 110.45 190.045 110.45C199.004 110.45 207.14 103.949 209.537 95.429H217.348C222.4 95.429 226.767 91.484 227.295 86.4447L229.985 60.8823C230.427 56.6786 228.728 51.2369 226.032 48.2233H226.033ZM86.2233 91.5252C86.0805 92.8916 85.697 94.2034 85.1392 95.429C83.038 100.05 78.2969 103.381 73.1331 103.381C70.15 103.381 67.4842 102.242 65.6236 100.178C64.4235 98.846 63.6452 97.2161 63.3173 95.428C63.1323 94.4152 63.0873 93.3535 63.2033 92.263C63.348 90.8966 63.7295 89.5848 64.2855 88.3593C66.3905 83.7378 71.1287 80.407 76.2925 80.407C79.2756 80.407 81.9433 81.5463 83.8019 83.6103C85.004 84.9432 85.7824 86.5722 86.1102 88.3602C86.2933 89.3731 86.3393 90.4348 86.2233 91.5252ZM203.131 91.5252C202.989 92.8916 202.606 94.2034 202.052 95.429C199.949 100.05 195.209 103.381 190.047 103.381C187.062 103.381 184.398 102.242 182.537 100.182C181.337 98.8489 180.559 97.217 180.229 95.429C180.044 94.4162 179.998 93.3545 180.113 92.264C180.258 90.8976 180.641 89.5858 181.195 88.3602C183.301 83.7387 188.039 80.408 193.204 80.408C196.189 80.408 198.853 81.5473 200.711 83.6113C201.914 84.9442 202.689 86.5731 203.019 88.3612C203.204 89.374 203.248 90.4347 203.131 91.5252ZM222.954 60.1436L220.264 85.7079C220.119 87.0954 218.731 88.3602 217.35 88.3602H210.162C209.777 84.8052 208.355 81.5281 205.967 78.8786C202.751 75.3083 198.219 73.3392 193.203 73.3392C184.245 73.3392 176.108 79.8388 173.707 88.3602H164.832L171.06 29.1346H195.216C197.395 29.1346 200.734 30.5624 202.087 32.0754L220.76 52.9368C222.118 54.4517 223.186 57.955 222.954 60.1436Z" fill="white"/>
<path id="Vector_2" d="M198.632 38.6164C197.582 37.4426 194.723 36.2036 193.067 36.2036H179.138C178.159 36.2036 177.285 36.9941 177.184 37.9705L175.416 54.8026C175.313 55.7781 176.022 56.5696 177 56.5696H212.944C213.921 56.5696 214.211 56.0119 213.593 55.3201L198.632 38.6164Z" fill="white"/>
<path id="Vector_3" d="M12.8382 35.3437H72.0614C74.0121 35.3437 75.5967 33.7588 75.5967 31.8088C75.5967 29.8588 74.0121 28.2749 72.0614 28.2749H12.8382C10.8856 28.2749 9.302 29.8588 9.302 31.8088C9.302 33.7588 10.8856 35.3437 12.8382 35.3437Z" fill="white"/>
<path id="Vector_4" d="M19.9092 42.4126C17.9566 42.4126 16.374 43.9965 16.374 45.9474C16.374 47.8984 17.9566 49.4814 19.9092 49.4814H87.9715C89.9221 49.4814 91.5076 47.8974 91.5076 45.9474C91.5076 43.9975 89.9231 42.4126 87.9715 42.4126H19.9092Z" fill="white"/>
</g>
<defs>
<clipPath id="clip0_72_10">
<rect width="231" height="111" fill="white"/>
</clipPath>
</defs>
</svg>
